<?xml version="1.0" encoding="utf-8"?>
<!-- Generator: Adobe Illustrator 24.0.2, SVG Export Plug-In . SVG Version: 6.00 Build 0)  -->
<svg version="1.1" id="Camada_1" xmlns="http://www.w3.org/2000/svg" xmlns:xlink="http://www.w3.org/1999/xlink" x="0px" y="0px"
	 viewBox="0 0 32 32" style="enable-background:new 0 0 32 32;" xml:space="preserve">
<style type="text/css">
	.st0{fill:#FFFFFF;}
	.st1{fill:#455A64;}
</style>
<g id="Youtube_1_">
	<polygon class="st0" points="7.5,23.6 7.5,8.4 24.5,16 	"/>
	<path class="st1" d="M7.5,24.5c-0.2,0-0.4-0.1-0.5-0.2c-0.3-0.2-0.4-0.5-0.4-0.8V12.3c0-0.5,0.4-0.9,0.9-0.9s0.9,0.4,0.9,0.9v9.9
		L22.2,16L7.1,9.3C6.6,9.1,6.4,8.5,6.6,8s0.8-0.7,1.3-0.5l17.1,7.6c0.3,0.2,0.6,0.5,0.6,0.9c0,0.4-0.2,0.7-0.6,0.9L7.8,24.5
		C7.7,24.5,7.6,24.5,7.5,24.5z"/>
</g>
</svg>
